<svg xmlns="http://www.w3.org/2000/svg" xmlns:xlink="http://www.w3.org/1999/xlink" xmlns:inkscape="http://www.inkscape.org/namespaces/inkscape" version="1.1" width="875.767" height="279.388" viewBox="0 0 875.767 279.388">
<defs>
<clipPath id="clip_1">
<path transform="matrix(1,0,0,-1,0,279.388)" d="M0 279.388H875.767V0H0Z"/>
</clipPath>
</defs>
<g inkscape:groupmode="layer" inkscape:label="Layer 1">
<g clip-path="url(#clip_1)">
<path transform="matrix(1,0,0,-1,139.6855,15.4627079)" d="M0 0C-68.504 0-124.236-55.723-124.236-124.231-124.236-192.739-68.504-248.468 0-248.468 68.497-248.468 124.237-192.739 124.237-124.231 124.237-55.723 68.497 0 0 0M0-263.925C-77.026-263.925-139.686-201.258-139.686-124.231-139.686-47.204-77.026 15.463 0 15.463 77.028 15.463 139.697-47.204 139.697-124.231 139.697-201.258 77.028-263.925 0-263.925" fill="#ef4036"/>
<path transform="matrix(1,0,0,-1,233.0132,125.9173)" d="M0 0H-30.564C-34.683 0-37.188-1.891-39.071-4.852-45.491-14.985-59.816-37.54-61.257-39.657-63.637-43.162-65.882-42.983-68.003-39.657-69.367-37.523-83.539-16.762-90.059-7.204-90.55-6.441-91.579-4.575-91.579-2.426-91.579 .405-89.834 3.059-89.834 3.059L-67.86 37.572C-67.86 37.572-66.089 40.233-66.089 43.065-66.089 45.889-67.86 48.582-67.86 48.582L-91.187 85.206C-91.187 85.206-91.897 86.488-93.319 86.488-94.747 86.488-95.457 85.206-95.457 85.206L-118.792 48.582C-118.792 48.582-120.561 45.889-120.561 43.065-120.561 40.233-118.792 37.572-118.792 37.572L-96.833 3.075C-96.833 3.075-95.076 .405-95.076-2.426-95.076-5.257-96.78-7.505-96.78-7.505L-118.649-39.657C-120.766-42.983-123.02-43.162-125.403-39.657L-147.581-4.852C-149.457-1.891-151.967 0-156.085 0H-186.65C-190.804 0-191.775-2.953-190.047-5.671L-128.705-102.406C-126.338-106.129-123.084-105.691-120.989-102.762L-96.252-68.192C-96.252-68.192-95.274-66.431-93.319-66.431-91.375-66.431-90.405-68.192-90.405-68.192-90.405-68.192-67.76-99.833-65.655-102.762-63.564-105.691-60.313-106.129-57.958-102.406-44.325-80.914 1.921-7.967 3.396-5.671 5.127-2.953 4.149 0 0 0" fill="#ef4036"/>
<path transform="matrix(1,0,0,-1,416.7402,124.7737)" d="M0 0V15.724H-17.752C-17.232 13.014-16.9 10.313-16.9 7.603-16.9 5.071-17.07 2.532-17.578 0ZM-57.629 35.155C-67.265 35.155-75.048 23.326-75.048 7.603-75.048-8.112-67.265-19.609-57.629-19.609-47.832-19.609-40.227-8.112-40.227 7.603-40.227 23.326-47.832 35.155-57.629 35.155M0 30.766V56.785H23.162V-52.216C23.162-59.324 22.66-65.58 21.809-69.968H0V-15.05H-23.504C-30.762-26.879-43.439-34.635-57.629-34.635-79.778-34.635-98.204-15.553-98.204 7.603-98.204 30.928-79.778 50.035-57.629 50.035-43.602 50.035-30.932 42.433-23.658 30.766Z" fill="#58595b"/>
<path transform="matrix(1,0,0,-1,531.0996,109.22)" d="M0 0V15.034H30.932V41.231H54.078V-23.829C54.078-30.928 53.576-37.191 52.732-41.58H30.932V0ZM9.809-60.354C-1.521-60.354-11.322-69.125-11.322-79.94-11.322-91.112-1.521-99.55 9.809-99.55 21.127-99.55 30.932-91.112 30.932-79.94 30.932-69.125 21.127-60.354 9.809-60.354M9.809-114.259C-14.373-114.259-34.477-99.217-34.477-79.94-34.477-60.671-14.373-45.296 9.809-45.296 33.979-45.296 54.078-60.671 54.078-79.94 54.078-99.217 33.979-114.259 9.809-114.259M17.236-22.652-2.203-38.376C-9.463-28.056-17.748-16.729-26.027-6.418-35.666-20.112-49.357-31.942-62.869-40.056L-74.873-31.261C-55.102-17.581-40.221 3.797-35.09 34.481H-10.623C-10.623 34.481-14.701 14.539-18.25 6.767-6.25-2.54 6.422-13.185 17.236-22.652" fill="#58595b"/>
<path transform="matrix(1,0,0,-1,703.9326,67.9886)" d="M0 0H23.172V-109.001C23.172-116.109 22.652-122.365 21.809-126.753H0ZM-82.648-98.251-94.317-86.698C-70.813-72.662-55.088-52.209-49.348-26.863H-88.393V-11.813H-20.275C-24.332-52.047-56.947-84.889-82.648-98.251" fill="#58595b"/>
<path transform="matrix(1,0,0,-1,0,279.388)" d="M811.7 73.49H851.92807V88.856998H811.7ZM851.928 103.907V122.503H874.912V58.448H793.958C791.255 58.448 788.724 60.971 788.724 63.689V122.503H811.7V103.907ZM794.976 191.465C785.333 191.465 777.56 182.338 777.56 171.012 777.56 159.686 785.333 150.729 794.976 150.729 804.765 150.729 812.378 159.686 812.378 171.012 812.378 182.338 804.765 191.465 794.976 191.465M852.609 178.622V211.399H875.771V146.339C875.771 139.24 875.252 132.977 874.408 128.588H852.609V163.58H834.698C830.8 147.873 814.241 135.857 794.976 135.857 772.831 135.857 754.405 151.734 754.405 171.012 754.405 190.442 772.831 206.337 794.976 206.337 814.069 206.337 830.638 194.508 834.698 178.622Z" fill="#58595b"/>
</g>
</g>
</svg>
